<?xml version="1.0" encoding="utf-8"?>
<!-- Generator: Adobe Illustrator 23.0.1, SVG Export Plug-In . SVG Version: 6.00 Build 0)  -->
<svg version="1.1" id="Layer_1" xmlns="http://www.w3.org/2000/svg" xmlns:xlink="http://www.w3.org/1999/xlink" x="0px" y="0px"
	 viewBox="0 0 730 175" style="enable-background:new 0 0 730 175;" xml:space="preserve">
<title>Booster Stage Logo</title>
<desc>Created with Sketch.</desc>
<g id="Booster-Stage-Logo">
	<g id="BoosterStageLogo" transform="translate(15.000000, 9.000000)">
		<path id="logotype" class="st0" d="M147.8,39.4h19.1c7.8,0,13.4,1.5,17,4.5c3.5,3,5.3,7.8,5.3,14.4c0,4.3-0.9,7.9-2.8,10.8
			c-1.9,2.9-4.4,4.7-7.7,5.3v0.5c4.2,1.1,7.3,3,9.2,5.9c1.9,2.9,2.8,6.7,2.8,11.5c0,6.8-1.8,12.1-5.4,15.9
			c-3.6,3.8-8.6,5.7-14.9,5.7h-22.5V39.4z M160.9,69.4h6.4c2.9,0,5-0.8,6.2-2.3s1.8-3.9,1.8-7c0-3.1-0.7-5.3-2-6.7
			c-1.4-1.3-3.5-2-6.4-2h-5.9V69.4z M160.9,81v20.9h7c2.9,0,5.1-0.9,6.5-2.7s2.1-4.5,2.1-8.2c0-6.7-2.9-10-8.8-10H160.9z
			 M241.6,85.5c0,9.3-2,16.6-5.9,21.8s-9.4,7.8-16.3,7.8c-4.4,0-8.2-1.2-11.6-3.6c-3.3-2.4-5.9-5.8-7.7-10.3
			c-1.8-4.5-2.7-9.7-2.7-15.7c0-9.2,2-16.4,5.9-21.6c3.9-5.2,9.4-7.8,16.3-7.8c6.7,0,12.1,2.6,16,7.9
			C239.6,69.3,241.6,76.5,241.6,85.5z M211.3,85.5c0,5.9,0.6,10.4,1.9,13.4c1.3,3,3.4,4.5,6.2,4.5c5.5,0,8.2-6,8.2-18
			c0-6-0.7-10.4-2-13.3c-1.3-2.9-3.4-4.4-6.2-4.4c-2.9,0-4.9,1.5-6.2,4.4C211.9,75.1,211.3,79.5,211.3,85.5z M292.6,85.5
			c0,9.3-2,16.6-5.9,21.8s-9.4,7.8-16.3,7.8c-4.4,0-8.2-1.2-11.6-3.6c-3.3-2.4-5.9-5.8-7.7-10.3s-2.7-9.7-2.7-15.7
			c0-9.2,2-16.4,5.9-21.6c3.9-5.2,9.4-7.8,16.3-7.8c6.7,0,12.1,2.6,16,7.9C290.6,69.3,292.6,76.5,292.6,85.5z M262.3,85.5
			c0,5.9,0.6,10.4,1.9,13.4c1.3,3,3.4,4.5,6.2,4.5c5.5,0,8.2-6,8.2-18c0-6-0.7-10.4-2-13.3c-1.3-2.9-3.4-4.4-6.2-4.4
			c-2.9,0-4.9,1.5-6.2,4.4C263,75.1,262.3,79.5,262.3,85.5z M332,97.4c0,5.5-1.6,9.9-4.9,13c-3.3,3.1-8.1,4.7-14.4,4.7
			c-5.6,0-10.3-1.1-14-3.3V99.9c1.9,1.3,4.1,2.4,6.6,3.2c2.5,0.9,4.7,1.3,6.6,1.3c2.1,0,3.7-0.5,4.8-1.6c1.1-1,1.7-2.4,1.7-4.1
			c0-1.7-0.6-3.2-1.7-4.5s-3.3-2.9-6.4-4.7c-4.1-2.4-7.1-5.1-8.9-7.8c-1.8-2.8-2.7-6-2.7-9.8c0-4.8,1.7-8.7,5-11.5
			c3.3-2.8,7.9-4.2,13.7-4.2c5,0,9.8,1.3,14.3,4l-4.5,9.7c-3.6-2-6.9-3-9.6-3c-1.7,0-3,0.5-3.9,1.4s-1.3,2-1.3,3.4
			c0,1.5,0.5,2.9,1.6,4.1s3.1,2.7,6,4.4c3.5,2.1,6,4,7.5,5.5c1.4,1.5,2.5,3.2,3.3,5.1C331.7,92.6,332,94.8,332,97.4z M359.7,103.5
			c1.9,0,4-0.5,6.2-1.4v10.6c-2.2,1.5-5.5,2.3-10,2.3c-4.9,0-8.6-1.5-11-4.4s-3.6-7.4-3.6-13.2V67.9h-5.5v-6.1l7.1-4.9l3.5-12h8.7
			v12.2h10.3v10.8h-10.3v29.9C355.1,101.6,356.6,103.5,359.7,103.5z M394.2,115c-7.1,0-12.7-2.5-16.9-7.6s-6.2-12.2-6.2-21.4
			c0-9.4,1.9-16.7,5.6-22c3.7-5.3,8.9-7.9,15.6-7.9c6.2,0,11.1,2.3,14.7,6.8c3.6,4.5,5.4,10.8,5.4,18.9v7.2H385
			c0.1,5.1,1.1,8.8,3.1,11.3c2,2.5,4.7,3.7,8.2,3.7c4.4,0,9-1.4,13.6-4.1v11.2C405.5,113.7,400.3,115,394.2,115z M392.2,66.6
			c-1.9,0-3.5,1-4.8,3.1c-1.3,2.1-2,5.2-2.2,9.6H399c-0.1-4.1-0.7-7.3-1.9-9.4C395.9,67.6,394.3,66.6,392.2,66.6z M444.9,56.1
			c1.7,0,3.3,0.3,4.9,0.8L448.3,70c-1-0.3-2.2-0.5-3.7-0.5c-3.3,0-5.9,1.3-7.6,3.9c-1.8,2.6-2.7,6.4-2.7,11.3V114h-13.6V57.2h11.2
			l1.5,8.9h0.5c1.5-3.6,3.1-6.1,4.9-7.7C440.5,56.9,442.6,56.1,444.9,56.1z M515.3,93.4c0,7-1.8,12.3-5.3,16
			c-3.5,3.7-8.6,5.6-15.3,5.6c-6.5,0-12.1-1.3-16.6-3.8V97.5c5.6,3.6,10.7,5.5,15.4,5.5c2.7,0,4.7-0.7,6-2.2c1.3-1.5,2-3.5,2-6
			c0-2.5-0.8-4.8-2.4-6.8c-1.6-2.1-4.2-4.3-7.9-6.9c-3.2-2.2-5.6-4.3-7.3-6.4c-1.7-2-2.9-4.3-3.8-6.8c-0.9-2.5-1.4-5.4-1.4-8.8
			c0-6.4,1.8-11.5,5.3-15.2c3.6-3.7,8.3-5.6,14.4-5.6c5.7,0,11.2,1.6,16.5,4.8l-4.6,11.1c-1.6-1-3.4-1.8-5.1-2.6
			c-1.8-0.7-3.7-1.1-5.8-1.1c-2.3,0-4,0.7-5.2,2.2c-1.2,1.5-1.8,3.5-1.8,6c0,2.5,0.7,4.7,2.2,6.6c1.4,1.9,4,4,7.6,6.4
			c4.9,3.3,8.3,6.6,10.2,10C514.3,85.2,515.3,89.1,515.3,93.4z M542.7,103.5c1.9,0,4-0.5,6.2-1.4v10.6c-2.2,1.5-5.5,2.3-10,2.3
			c-4.9,0-8.6-1.5-11-4.4c-2.4-2.9-3.6-7.4-3.6-13.2V67.9h-5.5v-6.1l7.1-4.9l3.5-12h8.7v12.2h10.3v10.8h-10.3v29.9
			C538.1,101.6,539.7,103.5,542.7,103.5z M584.1,114l-2.7-7.8h-0.3c-2,3.3-4.1,5.6-6.2,6.9c-2.1,1.3-4.9,1.9-8.1,1.9
			c-4.2,0-7.5-1.6-9.9-4.7c-2.4-3.1-3.6-7.5-3.6-13.1c0-6,1.6-10.4,4.9-13.3s8.2-4.5,14.8-4.8l7.6-0.3v-4.1c0-5.3-2.3-8-6.9-8
			c-3.4,0-7.3,1.3-11.8,4l-4.7-9.4c5.7-3.6,11.8-5.4,18.5-5.4c6,0,10.6,1.7,13.8,5.2c3.2,3.5,4.7,8.3,4.7,14.7V114H584.1z
			 M572.3,104.4c2.5,0,4.5-1.1,6-3.3c1.5-2.2,2.2-5.2,2.2-8.9v-4.8l-4.2,0.2c-3.1,0.2-5.4,1.1-6.8,2.7c-1.4,1.6-2.2,4-2.2,7.1
			C567.3,102.1,569,104.4,572.3,104.4z M645.4,57.3v8l-6.8,1.5c1.3,2.4,2,5.4,2,9c0,6-1.6,10.7-4.9,14.1c-3.3,3.4-7.8,5.1-13.7,5.1
			c-1.7,0-3-0.1-3.8-0.4c-0.6,0.6-1.3,1.2-1.8,1.9s-0.9,1.6-0.9,2.7c0,2.4,2.1,3.6,6.2,3.6h8.2c4.8,0,8.6,1.3,11.2,3.9
			c2.6,2.6,3.9,6.5,3.9,11.8c0,6.6-2.2,11.7-6.7,15.3c-4.4,3.6-10.8,5.4-19.1,5.4c-6.3,0-11.2-1.4-14.6-4.1s-5.1-6.6-5.1-11.7
			c0-3.2,1-5.9,2.9-8.3c1.9-2.4,4.6-4.1,8.1-5.2c-1.7-0.7-3.2-1.7-4.3-3.2c-1.1-1.4-1.7-3.1-1.7-5c0-1.2,0.2-2.2,0.5-3.1
			s0.8-1.8,1.5-2.7c0.6-0.8,1.9-2.1,3.9-3.7c-2.4-1.4-4.2-3.6-5.6-6.6c-1.4-3-2-6.2-2-9.8c0-6.2,1.6-11,4.9-14.4
			c3.3-3.4,8-5.1,14.1-5.1c1.2,0,2.5,0.1,4,0.4c1.5,0.3,2.6,0.5,3.4,0.8H645.4z M611.9,122.3c0,2.2,0.7,4,2.1,5.2
			c1.4,1.2,3.4,1.8,6.1,1.8c4.1,0,7.2-0.8,9.3-2.3c2.1-1.6,3.1-3.7,3.1-6.4c0-2.1-0.6-3.7-1.7-4.5c-1.1-0.9-3.2-1.3-6.2-1.3H618
			c-1.8,0-3.3,0.7-4.4,2.1C612.4,118.1,611.9,119.9,611.9,122.3z M616.1,75.7c0,6.7,1.9,10,5.7,10c3.7,0,5.5-3.4,5.5-10.2
			c0-6.9-1.8-10.4-5.5-10.4C618,65.2,616.1,68.7,616.1,75.7z M672.6,115c-7.1,0-12.7-2.5-16.9-7.6s-6.2-12.2-6.2-21.4
			c0-9.4,1.9-16.7,5.6-22c3.7-5.3,8.9-7.9,15.6-7.9c6.2,0,11.1,2.3,14.7,6.8c3.6,4.5,5.4,10.8,5.4,18.9v7.2h-27.4
			c0.1,5.1,1.1,8.8,3.1,11.3c2,2.5,4.7,3.7,8.2,3.7c4.4,0,9-1.4,13.6-4.1v11.2C683.9,113.7,678.7,115,672.6,115z M670.6,66.6
			c-1.9,0-3.5,1-4.8,3.1c-1.3,2.1-2,5.2-2.2,9.6h13.8c-0.1-4.1-0.7-7.3-1.9-9.4C674.3,67.6,672.6,66.6,670.6,66.6z"/>
		<path id="rocket" class="st0" d="M75.6,132.6c0.3,0.5,0.5,1.1,0.5,1.7l-0.2,8.3c0,1.6-1.4,2.9-3,2.8c-0.2,0-0.5,0-0.7-0.1
			L45,138.1c-1.6-0.4-2.5-2-2.1-3.6c0.1-0.2,0.1-0.4,0.3-0.6l4-7.3c0.3-0.5,0.7-1,1.3-1.2L8,114.5c0,0,0,0,0,0
			c-1.9-0.5-3.1-2.5-2.6-4.5l8.2-30.3l12.6,0l-6.4,22.8c0,0,0,0,0,0.1c-0.5,1.9,0.6,3.9,2.6,4.5l82.6,22c0,0,0,0,0,0
			c1.9,0.5,3.9-0.7,4.4-2.6l12.1-46.6l12.4,0l-16.2,60.3c-0.5,1.9-2.5,3.1-4.5,2.6L75.6,132.6z M83.2,90.3l-5.7,11
			c-0.8,1.3-1.7,2.7-2.6,4c-4.9-1.3-9.9-2.6-14.8-4c-0.1-1.6-0.2-3.2-0.2-4.8l0.6-12.3c-1.4,6.5-4,13.3-8.1,19.8
			c-2-0.5-3.9-1.1-5.9-1.6C46,86.1,51.5,71.7,60,64c0.8,2.5,1.3,5.2,1.5,8.1c3.9-24.4,14.7-44.8,29.7-56.9c6.9,18,6,41-2.8,64.1
			c1.6-2.4,3.4-4.5,5.4-6.3c3.5,10.9,1.1,26.2-7.6,40c-2-0.5-3.9-1.1-5.9-1.6C80,103.9,81.1,96.6,83.2,90.3z M81.4,51.7
			c3.1,0.8,6.3-1,7.1-4.1c0.8-3.1-1-6.3-4.1-7.1c-3.1-0.8-6.3,1-7.1,4.1C76.4,47.7,78.3,50.9,81.4,51.7z"/>
	</g>
</g>
</svg>
