<svg xmlns="http://www.w3.org/2000/svg" width="134" height="48" fill="none"><path fill="#3B4CFF" d="M47.644 24a23.821 23.821 0 0 1-23.822 23.822V24h23.822Z"/><path fill="#3B4CFF" d="M6.977 40.845a23.822 23.822 0 1 1 33.69-33.69L23.822 24 6.977 40.845Z"/><path fill="#121212" d="M116.61 27.21c0-5.027 2.78-8.326 7.288-8.326 1.946 0 3.459.769 4.324 1.954v-8.71h4.293v23.151h-4.293v-1.761c-.865 1.249-2.471 2.017-4.262 2.017-4.571 0-7.35-3.298-7.35-8.325Zm11.859 0c0-2.722-1.513-4.515-3.798-4.515-2.286 0-3.799 1.793-3.799 4.515 0 2.722 1.513 4.483 3.799 4.483 2.285 0 3.798-1.793 3.798-4.483ZM116.549 22.855h-2.564c-2.131 0-3.088 1.825-3.088 4.579v7.845h-4.324V19.14h4.324v2.69c.834-2.017 2.008-2.69 3.891-2.69h1.761v3.715ZM104.844 29.803c-.618 3.49-3.583 5.732-7.412 5.732-5.281 0-7.999-4.29-7.999-8.357 0-4.067 2.409-8.294 7.69-8.294 5.281 0 7.69 4.195 7.69 7.878 0 .608-.031 1.088-.062 1.44h-11.18c.31 2.274 1.7 3.683 3.861 3.683 1.73 0 2.872-.705 3.212-2.082h4.2Zm-11.21-4.418h6.886c-.124-1.794-1.328-3.235-3.397-3.235-1.946 0-3.12.993-3.49 3.235ZM83.195 12h4.725v4.739h-4.725v-4.74Zm.185 23.28V19.14h4.324V35.28H83.38ZM60.434 24.072c0-7.653 5.25-11.464 10.964-11.464 5.713 0 9.327 3.298 9.605 8.101H76.4c-.34-2.401-2.254-3.97-5.034-3.97-3.675 0-6.517 2.69-6.517 7.333 0 4.643 2.842 7.557 6.424 7.557 2.687 0 5.343-2.018 5.343-4.1 0-.544-.34-.896-.865-.896h-4.169v-3.618h5.868c2.007 0 3.49 1.665 3.49 3.618v8.646h-4.108v-3.426c-.71 2.21-2.995 3.682-5.775 3.682-5.528 0-10.624-3.81-10.624-11.463Z"/></svg>