<svg width="526" height="84" viewBox="0 0 526 84" fill="none" xmlns="http://www.w3.org/2000/svg">
<path d="M125.97 57.45C128.22 57.45 130.39 56.87 132.44 55.7C134.5 54.53 136.58 52.67 138.67 50.13C139.43 49.21 139.82 47.95 139.82 46.38C139.82 45.53 139.67 44.86 139.37 44.38C139.07 43.89 138.65 43.65 138.13 43.65C137.52 43.65 136.98 43.93 136.5 44.5C134.77 46.56 133.27 48.03 131.99 48.92C130.72 49.8 129.42 50.25 128.09 50.25C126.68 50.25 125.58 49.82 124.79 48.98C124 48.13 123.61 46.86 123.61 45.17C123.61 43.72 123.81 41.98 124.22 39.97L127.91 22.66C128.43 20.12 128.7 17.96 128.7 16.19C128.7 12.92 127.94 10.38 126.43 8.57C124.91 6.75 122.75 5.84 119.92 5.84C116.41 5.84 113.31 7.05 110.6 9.47C107.9 11.89 105.54 15.89 103.52 21.45C103.88 19.47 104.06 17.82 104.06 16.49C104.06 13.1 103.3 10.48 101.79 8.62C100.28 6.77 98.2102 5.84 95.5802 5.84C92.1602 5.84 89.0102 7.14 86.1502 9.74C83.2802 12.34 80.7002 16.93 78.4002 23.51C78.4802 23.15 78.6001 22.5 78.7701 21.58C78.9301 20.65 79.1102 19.45 79.3102 17.98C79.5102 16.51 79.6102 15.22 79.6102 14.14C79.6102 11.43 79.0202 9.38 77.8302 7.97C76.6402 6.56 74.9402 5.85 72.7202 5.85C70.3402 5.85 67.9602 6.59 65.5802 8.06C63.2002 9.53 61.0402 11.62 59.1102 14.32C58.5002 15.17 58.0702 15.92 57.8102 16.59C57.5402 17.26 57.4102 17.91 57.4102 18.56C57.4102 19.24 57.6302 19.86 58.0502 20.4C58.4702 20.94 58.9702 21.21 59.5302 21.21C60.2102 21.21 60.8402 20.83 61.4002 20.06C63.1702 17.72 64.8002 16.02 66.2802 14.95C67.7502 13.88 69.0102 13.35 70.0602 13.35C71.3902 13.35 72.0602 14.25 72.0602 16.07C72.0602 18 71.8801 20.43 71.5201 23.33C70.9101 27.97 70.0902 33.45 69.0402 39.79C68.4302 43.21 68.0002 45.9 67.7402 47.87C67.4802 49.83 67.3502 51.42 67.3502 52.68C67.3502 54.54 67.6702 55.8 68.3202 56.46C68.9702 57.12 70.0302 57.46 71.5302 57.46C73.1002 57.46 74.1601 57.06 74.7001 56.25C75.2501 55.44 75.6602 54.02 75.9402 51.96C77.2702 42.23 78.9302 34.52 80.9302 28.81C82.9302 23.11 84.9802 19.13 87.0702 16.89C89.1702 14.65 91.2002 13.53 93.1902 13.53C94.3602 13.53 95.2302 13.89 95.8202 14.61C96.4102 15.34 96.7001 16.47 96.7001 18C96.7001 20.82 95.7702 27.12 93.9202 36.88C93.2302 40.51 92.6702 43.67 92.2202 46.35C91.7802 49.04 91.5602 51.21 91.5602 52.86C91.5602 54.63 91.8702 55.84 92.5002 56.49C93.1202 57.14 94.1202 57.46 95.4902 57.46C97.0602 57.46 98.2002 57.05 98.9102 56.22C99.6102 55.39 100.11 53.77 100.39 51.35C101.56 42.31 103.08 34.97 104.95 29.32C106.83 23.67 108.8 19.63 110.88 17.19C112.95 14.75 114.94 13.53 116.84 13.53C117.85 13.53 118.63 13.88 119.17 14.59C119.71 15.3 119.99 16.36 119.99 17.77C119.99 18.58 119.93 19.39 119.81 20.22C119.69 21.05 119.53 21.92 119.32 22.85C119.12 23.78 118.98 24.42 118.89 24.79L116.47 35.86C115.5 40.38 115.02 43.83 115.02 46.21C115.02 49.63 115.99 52.37 117.93 54.41C119.85 56.43 122.54 57.45 125.97 57.45ZM147.39 57.45C150.49 57.45 153.41 56.68 156.13 55.15C158.86 53.61 160.96 51.94 162.45 50.13C163.22 49.24 163.61 47.99 163.61 46.38C163.61 45.53 163.46 44.86 163.15 44.38C162.85 43.89 162.43 43.65 161.91 43.65C161.3 43.65 160.76 43.93 160.28 44.5C158.59 46.56 156.58 48.22 154.26 49.5C151.94 50.77 149.87 51.41 148.05 51.41C145.23 51.41 143.31 50.48 142.3 48.62C147.06 47.45 150.44 45.87 152.44 43.88C154.44 41.88 155.43 39.49 155.43 36.71C155.43 34.33 154.73 32.45 153.31 31.06C151.9 29.67 150.02 28.97 147.68 28.97C145.06 28.97 142.71 29.67 140.63 31.08C138.55 32.49 136.93 34.4 135.76 36.8C134.59 39.2 134 41.8 134 44.58C134 48.57 135.18 51.72 137.51 54.02C139.86 56.3 143.15 57.45 147.39 57.45ZM141.34 43.89V43.77C141.34 41.31 141.85 39.21 142.88 37.47C143.91 35.74 145.17 34.87 146.66 34.87C147.39 34.87 147.96 35.1 148.39 35.56C148.81 36.03 149.02 36.64 149.02 37.41C149.02 38.91 148.34 40.21 146.97 41.35C145.59 42.48 143.72 43.33 141.34 43.89ZM195.07 57.45C197.62 57.45 199.88 56.77 201.88 55.4C203.88 54.02 205.74 52.27 207.47 50.13C208.24 49.24 208.62 47.99 208.62 46.38C208.62 45.53 208.47 44.86 208.16 44.38C207.86 43.89 207.44 43.65 206.92 43.65C206.31 43.65 205.77 43.93 205.29 44.5C203.44 46.72 201.95 48.32 200.84 49.31C199.73 50.31 198.77 50.8 197.97 50.8C196.8 50.8 196.22 49.99 196.22 48.38C196.22 47.25 196.6 44.93 197.37 41.42C198.25 37.31 198.7 34.46 198.7 32.89C198.7 30.27 197.39 28.96 194.77 28.96C192.63 28.96 190.33 30.09 187.87 32.35C185.41 34.6 183.17 38.21 181.16 43.18C181.28 42.45 181.5 41.37 181.83 39.91C182.6 36.52 182.98 34.18 182.98 32.89C182.98 31.56 182.69 30.57 182.1 29.93C181.52 29.28 180.51 28.96 179.1 28.96C177.69 28.96 176.18 29.5 174.59 30.56C173 31.63 171.44 33.25 169.93 35.43C168.42 37.61 167.12 40.27 166.03 43.42C166.2 41.65 166.4 40.16 166.64 38.97C166.88 37.78 167.21 36.38 167.61 34.77C168.22 32.51 168.51 31.06 168.51 30.41C168.51 29.85 168.35 29.46 168.03 29.26C167.7 29.06 167.14 28.96 166.33 28.96C164.83 28.96 163.68 29.23 162.85 29.77C162.02 30.31 161.42 31.18 161.06 32.34C159.57 37.06 158.82 42.04 158.82 47.28C158.82 50.83 159.13 53.41 159.76 55.02C160.39 56.64 161.46 57.44 163 57.44C164.24 57.44 165.16 57.11 165.75 56.44C166.33 55.77 166.85 54.49 167.29 52.59C167.82 50.41 168.52 48.19 169.38 45.94C170.25 43.68 171.15 41.82 172.07 40.37C173 38.91 173.77 38.18 174.37 38.18C174.82 38.18 175.03 38.51 175.03 39.15C175.03 39.96 174.87 41.65 174.55 44.23C174.15 47.14 173.94 49.36 173.94 50.89C173.94 52.7 174.27 54.25 174.94 55.52C175.61 56.79 176.61 57.43 177.94 57.43C179.23 57.43 180.17 57.11 180.75 56.46C181.33 55.81 181.85 54.53 182.29 52.58C182.9 50.12 183.68 47.78 184.65 45.57C185.62 43.35 186.59 41.56 187.56 40.21C188.53 38.86 189.27 38.18 189.8 38.18C190.24 38.18 190.46 38.51 190.46 39.15C190.46 40.12 190.2 41.87 189.67 44.41C189.11 47.32 188.82 49.34 188.82 50.46C188.82 52.72 189.35 54.45 190.4 55.64C191.45 56.85 193.01 57.45 195.07 57.45ZM215.82 57.45C218.52 57.45 220.99 56.42 223.23 54.37C225.47 52.31 226.99 49.61 227.8 46.26C230.7 46.14 233.37 45.65 235.79 44.81C236.4 44.61 236.84 44.24 237.12 43.7C237.41 43.15 237.54 42.38 237.54 41.37C237.54 40.56 237.4 39.89 237.12 39.37C236.84 38.84 236.44 38.58 235.91 38.58C235.59 38.58 235.31 38.62 235.06 38.7C232.44 39.39 230.18 39.79 228.28 39.91C227.96 36.93 226.95 34.41 225.25 32.38C223.56 30.34 221.36 29.22 218.66 29.02C221.57 25.43 223.65 22 224.89 18.74C226.14 15.47 226.77 12.19 226.77 8.87C226.77 6.33 226.21 4.27 225.07 2.67C223.94 1.08 222.45 0.28 220.6 0.28C217.17 0.28 214.21 2.43 211.74 6.72C209.26 11.02 207.37 16.22 206.08 22.33C204.79 28.45 204.15 34.1 204.15 39.3C204.15 45.19 205.08 49.69 206.93 52.8C208.78 55.89 211.75 57.45 215.82 57.45ZM212.13 33.13C212.53 28.24 213.14 23.75 213.94 19.63C214.75 15.52 215.62 12.26 216.57 9.86C217.52 7.46 218.4 6.26 219.21 6.26C219.73 6.26 220.14 6.6 220.45 7.29C220.75 7.98 220.9 8.97 220.9 10.25C220.9 13.16 220.11 16.48 218.51 20.21C216.92 23.93 214.8 28.24 212.13 33.13ZM216.06 51.03C214.89 51.03 213.87 50.42 213.01 49.22C212.15 48.01 211.71 46.26 211.71 43.96C211.71 41.21 212.27 39.03 213.37 37.39C214.48 35.76 215.86 34.94 217.52 34.94H217.7C217.54 35.91 217.46 36.67 217.46 37.24C217.46 38.78 217.79 40.22 218.46 41.6C219.13 42.97 220.08 44.08 221.33 44.93C221.01 46.91 220.36 48.42 219.4 49.47C218.43 50.51 217.31 51.03 216.06 51.03ZM244.81 57.45C247.91 57.45 250.83 56.68 253.55 55.15C256.27 53.61 258.38 51.94 259.87 50.13C260.64 49.24 261.02 47.99 261.02 46.38C261.02 45.53 260.87 44.86 260.56 44.38C260.26 43.89 259.85 43.65 259.32 43.65C258.71 43.65 258.17 43.93 257.69 44.5C256 46.56 253.99 48.22 251.67 49.5C249.35 50.77 247.28 51.41 245.47 51.41C242.65 51.41 240.73 50.48 239.72 48.62C244.48 47.45 247.86 45.87 249.86 43.88C251.86 41.88 252.86 39.49 252.86 36.71C252.86 34.33 252.15 32.45 250.74 31.06C249.33 29.67 247.46 28.97 245.11 28.97C242.49 28.97 240.14 29.67 238.06 31.08C235.98 32.49 234.36 34.4 233.19 36.8C232.02 39.2 231.44 41.8 231.44 44.58C231.44 48.57 232.61 51.72 234.94 54.02C237.28 56.3 240.57 57.45 244.81 57.45ZM238.75 43.89V43.77C238.75 41.31 239.26 39.21 240.29 37.47C241.32 35.74 242.58 34.87 244.07 34.87C244.8 34.87 245.37 35.1 245.8 35.56C246.22 36.03 246.44 36.64 246.44 37.41C246.44 38.91 245.75 40.21 244.38 41.35C243.01 42.48 241.13 43.33 238.75 43.89ZM332.92 57.45C334.17 57.45 335.09 57.12 335.68 56.45C336.26 55.78 336.78 54.5 337.22 52.6C337.83 50.14 338.61 47.8 339.58 45.59C340.55 43.37 341.53 41.58 342.52 40.23C343.51 38.88 344.31 38.2 344.91 38.2C345.35 38.2 345.57 38.53 345.57 39.17C345.57 39.45 345.53 39.99 345.45 40.8C345.33 41.41 345.27 42.01 345.27 42.62C345.27 44.48 345.82 45.95 346.93 47.04C348.04 48.13 349.66 48.67 351.8 48.67C353.5 48.67 355.1 48.26 356.61 47.43C358.13 46.6 359.45 45.6 360.58 44.43C361.39 43.59 361.79 42.41 361.79 40.92C361.79 40.16 361.64 39.54 361.34 39.08C361.03 38.61 360.62 38.39 360.1 38.39C359.53 38.39 358.99 38.65 358.47 39.18C356.7 40.95 355.24 41.84 354.12 41.84C353.11 41.84 352.6 41.14 352.6 39.73C352.6 39.33 352.76 38.32 353.09 36.7C353.45 34.68 353.63 33.41 353.63 32.89C353.63 30.27 352.32 28.96 349.7 28.96C348.36 28.96 346.9 29.42 345.31 30.35C343.72 31.28 342.1 32.83 340.44 35C338.78 37.19 337.29 40 335.96 43.47C336.12 41.7 336.32 40.2 336.57 39C336.81 37.79 337.13 36.38 337.54 34.76C338.15 32.5 338.45 31.05 338.45 30.4C338.45 29.84 338.29 29.45 337.96 29.25C337.64 29.05 337.08 28.95 336.27 28.95C334.77 28.95 333.61 29.22 332.79 29.76C331.96 30.3 331.36 31.17 331 32.33C329.51 37.05 328.76 42.03 328.76 47.27C328.76 50.82 329.07 53.4 329.7 55.01C330.31 56.64 331.39 57.45 332.92 57.45ZM364.09 24.96C365.82 24.96 367.21 24.49 368.26 23.53C369.31 22.58 369.83 21.3 369.83 19.69C369.83 18.36 369.37 17.33 368.44 16.6C367.51 15.88 366.3 15.52 364.81 15.52C363.15 15.52 361.78 15.99 360.66 16.94C359.55 17.89 359 19.07 359 20.48C359 21.89 359.42 22.99 360.27 23.78C361.12 24.56 362.39 24.96 364.09 24.96ZM363.6 57.45C367.07 57.45 370.8 55.01 374.79 50.13C375.56 49.24 375.94 47.99 375.94 46.38C375.94 45.53 375.79 44.86 375.49 44.38C375.19 43.89 374.77 43.65 374.25 43.65C373.64 43.65 373.1 43.93 372.62 44.5C370.8 46.68 369.35 48.27 368.26 49.28C367.17 50.29 366.26 50.8 365.53 50.8C364.76 50.8 364.22 50.47 363.9 49.83C363.57 49.19 363.41 48.26 363.41 47.05C363.41 45.48 363.9 42.47 364.86 38.03C365.63 34.36 366.01 32.02 366.01 31.01C366.01 29.64 364.98 28.96 362.92 28.96C361.59 28.96 360.62 29.2 360.02 29.68C359.41 30.17 358.93 31.05 358.57 32.34C357.85 34.8 357.25 37.45 356.79 40.3C356.32 43.14 356.09 45.47 356.09 47.28C356.09 50.35 356.68 52.8 357.87 54.66C359.07 56.52 360.98 57.45 363.6 57.45ZM378.18 57.45C379.68 57.45 381 57.02 382.17 56.18C383.34 55.33 384.73 53.76 386.34 51.46C387.75 49.44 389.05 47.49 390.21 45.6C391.78 46.08 393.46 46.32 395.23 46.32C397.32 46.32 399.31 46.01 401.16 45.41C402.13 45.09 402.86 44.57 403.34 43.87C403.83 43.16 404.07 42.19 404.07 40.93C404.07 40.24 403.91 39.7 403.58 39.3C403.26 38.9 402.79 38.69 402.19 38.69C401.91 38.69 401.71 38.71 401.58 38.75L399.95 39.05C397.41 39.58 395.37 39.88 393.84 39.96C394.81 37.62 395.29 35.54 395.29 33.73C395.29 32.16 394.92 30.96 394.2 30.13C393.48 29.3 392.52 28.89 391.35 28.89C390.02 28.89 388.83 29.29 387.78 30.1C386.73 30.91 385.9 31.96 385.3 33.25C384.7 34.54 384.4 35.87 384.4 37.24C384.4 38.85 384.71 40.25 385.3 41.41C384.1 43.55 382.28 46.41 379.86 50C379.3 42.58 379.01 36.55 379.01 31.91C379.01 30.82 378.76 30.05 378.25 29.58C377.75 29.12 376.97 28.89 375.92 28.89C374.55 28.89 373.52 29.15 372.84 29.68C372.15 30.2 371.79 31.13 371.75 32.46V34.58C371.75 38.81 371.99 43.76 372.48 49.4C372.72 52.18 373.32 54.21 374.26 55.51C375.23 56.81 376.53 57.45 378.18 57.45ZM410.14 57.45C412.68 57.45 414.86 56.97 416.7 56C418.54 55.03 420.02 53.68 421.15 51.94C421.84 50.89 422.18 49.64 422.18 48.19C422.18 47.34 422.03 46.67 421.73 46.19C421.43 45.7 421.01 45.46 420.49 45.46C419.88 45.46 419.34 45.77 418.86 46.37C417.45 48.18 416.21 49.47 415.14 50.24C414.07 51 412.71 51.39 411.06 51.39C408.76 51.39 407.13 50.46 406.16 48.6C410.96 47.43 414.36 45.85 416.36 43.86C418.36 41.86 419.36 39.47 419.36 36.69C419.36 34.31 418.65 32.43 417.24 31.04C415.83 29.65 413.96 28.95 411.61 28.95C408.99 28.95 406.64 29.65 404.56 31.06C402.48 32.47 400.86 34.38 399.69 36.78C398.52 39.18 397.94 41.78 397.94 44.56C397.94 48.51 399 51.65 401.15 53.97C403.26 56.29 406.26 57.45 410.14 57.45ZM405.23 43.89V43.77C405.23 41.31 405.74 39.21 406.77 37.47C407.8 35.74 409.06 34.87 410.55 34.87C411.28 34.87 411.85 35.1 412.28 35.56C412.71 36.03 412.92 36.64 412.92 37.41C412.92 38.91 412.23 40.21 410.86 41.35C409.49 42.48 407.61 43.33 405.23 43.89Z" fill="#1B1430"/>
<path d="M42.2602 27.02C45.3402 27.44 48.3302 28.08 51.2202 28.96C52.4802 29.35 53.2502 30.63 53.0102 31.93L50.5702 44.83C50.3402 46.05 49.2702 46.94 48.0202 46.94H46.5002L44.6902 56.5C44.4602 57.72 43.3902 58.61 42.1402 58.61H32.6602L33.7502 52.77H37.4202L42.2602 27.02Z" fill="#9789C1"/>
<path d="M35.4801 0.270001C40.1801 0.230001 44.4601 2.98 46.3401 7.25C48.2301 11.52 47.3701 16.51 44.1601 19.91C40.9401 23.32 35.9901 24.49 31.5701 22.91C36.8101 16.52 36.8101 7.36 31.5701 0.970001C32.8401 0.560001 34.1001 0.270001 35.4801 0.270001Z" fill="#9789C1"/>
<path d="M17.8601 23.6C11.3701 23.6 6.11009 18.38 6.11009 11.93C6.11009 5.49 11.3701 0.26 17.8601 0.26C24.3501 0.26 29.6101 5.48 29.6101 11.93C29.6101 18.38 24.3501 23.6 17.8601 23.6ZM17.8601 26.52C23.3501 26.52 28.6201 27.41 33.5801 28.96C34.8401 29.36 35.6101 30.63 35.3701 31.92L32.9501 44.82C32.7201 46.05 31.6501 46.94 30.4001 46.94H28.8801L27.0701 56.5C26.8401 57.72 25.7701 58.61 24.5201 58.61H11.1901C9.94009 58.61 8.87009 57.72 8.64009 56.5L6.84009 46.94H5.32009C4.07009 46.94 3.00009 46.05 2.77009 44.82L0.360093 31.92C0.120093 30.62 0.890093 29.35 2.15009 28.96C7.22009 27.36 12.5201 26.54 17.8601 26.52Z" fill="#564393"/>
<path d="M430.85 56.33C427.16 56.33 425.31 54.51 425.31 50.87C425.31 48.97 425.84 47.46 426.9 46.35C427.96 45.24 429.44 44.68 431.34 44.68C435.09 44.68 436.96 46.44 436.96 49.97C436.96 51.87 436.42 53.4 435.33 54.57C434.25 55.75 432.75 56.33 430.85 56.33Z" fill="#1B1430"/>
<path d="M439.44 46.07C439.44 41.57 440.82 37.67 443.59 34.39C446.36 31.11 449.8 29.47 453.93 29.47C456.64 29.47 458.8 30.38 460.4 32.2C462 34.02 462.8 36.31 462.8 39.08C462.8 39.89 462.72 40.76 462.56 41.69C465.54 40.66 468.07 39.11 470.13 37.05C470.46 36.72 470.88 36.56 471.39 36.56C471.91 36.56 472.42 36.89 472.94 37.54C473.46 38.19 473.71 38.78 473.71 39.29C473.71 39.81 473.63 40.17 473.47 40.39C471.35 43.16 467.42 45.49 461.67 47.39C459.28 53.69 455.4 56.83 450.03 56.83C446.94 56.83 444.4 55.83 442.42 53.82C440.43 51.8 439.44 49.22 439.44 46.07ZM450.67 50.96C452.19 50.96 453.38 50.47 454.25 49.49C455.12 48.51 455.66 47.32 455.88 45.91C453.71 45.1 452.62 43.7 452.62 41.72C452.62 39.74 453.43 37.75 455.06 35.74L453.59 35.5H453.51C451.28 35.5 449.49 36.49 448.14 38.47C446.78 40.45 446.1 42.47 446.1 44.54C446.1 46.6 446.49 48.19 447.28 49.3C448.08 50.4 449.2 50.96 450.67 50.96Z" fill="#1B1430"/>
<path d="M480.39 39.56C480.23 39.94 479.52 41.5 478.27 44.24C477.02 46.98 475.72 50.2 474.36 53.89C473.49 55.52 472.08 56.33 470.13 56.33C467.47 56.33 466.14 54.4 466.14 50.55V48.92C466.14 43.44 466.84 38.28 468.26 33.45C469.29 30.79 470.84 29.46 472.9 29.46C473.71 29.46 474.38 29.73 474.9 30.27C475.41 30.81 475.67 31.37 475.67 31.94C475.67 32.51 475.33 34.36 474.65 37.48C473.97 40.6 473.41 42.76 472.98 43.95C474.28 40.91 476.16 37.75 478.6 34.47C481.04 31.19 482.94 29.54 484.3 29.54C487.01 29.54 488.37 30.44 488.37 32.23C488.37 33.37 488.07 34.65 487.47 36.06C486.87 37.47 486.57 38.21 486.57 38.26C486.57 38.53 486.99 38.67 487.83 38.67C488.67 38.67 490.91 37.94 494.55 36.47H494.63C495.17 36.47 495.82 36.93 496.58 37.85C497.34 38.77 497.72 39.53 497.72 40.13C497.72 40.4 497.64 40.56 497.48 40.62C493.73 43.61 489.92 45.1 486.04 45.1C482.16 45.1 480.22 43.74 480.22 41.03C480.22 40.59 480.28 40.1 480.39 39.56Z" fill="#1B1430"/>
<path d="M489.02 48.43C489.02 43.33 490.82 38.92 494.43 35.2C498.04 31.48 502.15 29.62 506.76 29.62H507.17C507.88 29.62 508.47 29.84 508.96 30.27C509.45 30.71 509.69 31.14 509.69 31.57C510.5 31.3 511.3 31.16 512.09 31.16C512.88 31.16 513.6 31.46 514.25 32.06C514.9 32.66 515.23 33.23 515.23 33.77C515.23 34.31 515.2 34.67 515.15 34.83L510.75 53.15C512.49 51.68 514.46 50.31 516.65 49.04C518.84 47.77 520.35 47.13 521.17 47.13H521.25C521.41 47.08 521.79 47.05 522.39 47.05C522.99 47.05 523.61 47.35 524.26 47.95C524.91 48.55 525.24 49.28 525.24 50.15C525.24 51.02 524.56 51.81 523.2 52.51C522.71 52.78 520.88 53.69 517.7 55.24C514.53 56.79 511.82 58.26 509.6 59.68C508.03 66.36 506.13 71.7 503.9 75.72C502.54 78.11 500.9 79.93 498.97 81.17C497.04 82.42 494.91 83.04 492.58 83.04C490.25 83.04 488.47 82.47 487.25 81.33C486.03 80.19 485.42 78.59 485.42 76.53C485.42 70.78 491.69 64.18 504.23 56.75L504.8 53.49C503.01 55.66 500.67 56.75 497.8 56.75C494.92 56.75 492.74 55.98 491.25 54.43C489.76 52.87 489.02 50.87 489.02 48.43ZM493.49 77.09C495.17 77.09 496.8 76.11 498.37 74.16C499.94 72.21 501.15 70.18 501.99 68.09C502.83 66 503.36 64.22 503.58 62.76C500.38 65.15 497.88 67.08 496.09 68.54C495.11 69.41 494.18 70.48 493.28 71.76C492.38 73.03 491.94 74.24 491.94 75.38C491.94 76.52 492.46 77.09 493.49 77.09ZM499.19 50.47C502.45 50.47 504.81 47.97 506.27 42.98L508.14 35.73C505.21 35.95 502.59 37.37 500.28 40C497.97 42.63 496.82 45.04 496.82 47.21C496.83 49.38 497.62 50.47 499.19 50.47Z" fill="#1B1430"/>
<path d="M325.28 15.21C323.34 11.9 320.58 9.39 316.99 7.68C313.4 5.96 309.14 5.11 304.22 5.11C300.75 5.11 297.14 5.6 293.39 6.59C289.64 7.58 286.37 9.02 283.59 10.92C282.82 11.44 282.28 12.02 281.96 12.65C281.64 13.28 281.48 14.07 281.48 15.03C281.48 15.88 281.68 16.6 282.09 17.18C282.49 17.76 283.04 18.06 283.72 18.06C284.33 18.06 284.9 17.88 285.42 17.52C287.96 15.86 290.81 14.54 293.98 13.53C297.14 12.52 300.34 12.01 303.57 12.01C308.57 12.01 312.45 13.32 315.19 15.95C317.93 18.58 319.31 22.28 319.31 27.08C319.31 34.22 317.56 39.93 314.07 44.21C310.58 48.48 305.31 50.62 298.25 50.62C296.71 50.62 295.34 50.56 294.13 50.44C294.58 45.52 295.32 40.35 296.37 34.92C297.42 29.5 298.47 25.17 299.52 21.94C299.76 21.21 299.89 20.57 299.89 20C299.89 18.63 298.66 17.95 296.19 17.95C294.82 17.95 293.71 18.15 292.86 18.56C292.01 18.96 291.45 19.67 291.16 20.68C291.02 21.2 290.88 21.72 290.74 22.24C289.96 25.18 289.26 28.14 288.63 31.12C288.31 32.64 288 34.17 287.71 35.69C287.57 36.42 287.46 36.95 287.1 37.59C286.77 38.16 286.44 38.73 285.97 39.2C284.2 40.97 282.74 41.86 281.62 41.86C280.61 41.86 280.1 41.16 280.1 39.75C280.1 39.35 280.27 38.34 280.59 36.72C280.95 34.7 281.13 33.43 281.13 32.91C281.13 30.29 279.82 28.98 277.2 28.98C275.87 28.98 274.4 29.44 272.81 30.37C271.22 31.3 269.6 32.85 267.94 35.02C266.29 37.21 264.79 40.02 263.47 43.49C263.63 41.72 263.83 40.22 264.08 39.02C264.32 37.81 264.64 36.4 265.05 34.78C265.66 32.52 265.95 31.07 265.95 30.42C265.95 29.86 265.79 29.47 265.47 29.27C265.14 29.07 264.58 28.97 263.77 28.97C262.28 28.97 261.12 29.24 260.29 29.78C259.46 30.32 258.87 31.19 258.5 32.35C257.01 37.07 256.27 42.05 256.27 47.29C256.27 50.84 256.58 53.42 257.2 55.03C257.83 56.65 258.9 57.45 260.44 57.45C261.69 57.45 262.6 57.12 263.19 56.45C263.78 55.78 264.29 54.5 264.73 52.6C265.34 50.14 266.12 47.8 267.09 45.59C268.06 43.37 269.04 41.58 270.02 40.23C271.01 38.88 271.81 38.2 272.41 38.2C272.86 38.2 273.08 38.53 273.08 39.17C273.08 39.45 273.04 39.99 272.95 40.8C272.83 41.41 272.77 42.01 272.77 42.62C272.77 44.48 273.33 45.95 274.43 47.04C275.54 48.13 277.17 48.68 279.3 48.68C281 48.68 282.6 48.27 284.11 47.44C284.78 47.08 285.4 46.67 285.99 46.24C285.69 48.5 285.48 50.57 285.34 52.43C285.26 53.89 285.52 54.94 286.13 55.58C286.74 56.22 287.85 56.65 289.46 56.85C292.4 57.25 295.05 57.46 297.38 57.46C303.8 57.46 309.32 56.22 313.96 53.71C318.6 51.21 322.13 47.69 324.55 43.15C326.97 38.61 328.18 33.3 328.18 27.2C328.18 22.51 327.21 18.52 325.28 15.21Z" fill="#1B1430"/>
</svg>
