<svg width="338" height="77" viewBox="0 0 338 77" fill="none" xmlns="http://www.w3.org/2000/svg">
<g clip-path="url(#clip0_4_2)">
<path d="M104.01 56.46C103.866 56.46 103.704 56.406 103.524 56.298C103.344 56.19 103.218 55.956 103.146 55.596L94.992 22.494C94.956 22.242 94.848 22.134 94.668 22.17C94.488 22.17 94.398 22.296 94.398 22.548L93.318 52.356C93.282 53.364 93.444 54.138 93.804 54.678C94.164 55.182 94.794 55.506 95.694 55.65L96.396 55.758C96.864 55.794 97.098 56.01 97.098 56.406C97.098 56.802 96.828 57 96.288 57H88.566C88.026 57 87.756 56.802 87.756 56.406C87.756 56.01 87.99 55.794 88.458 55.758L89.16 55.65C90.096 55.506 90.726 55.182 91.05 54.678C91.41 54.138 91.608 53.364 91.644 52.356L92.724 21.684C92.76 20.928 92.652 20.424 92.4 20.172C92.148 19.92 91.608 19.722 90.78 19.578L89.538 19.362C89.07 19.254 88.836 19.038 88.836 18.714C88.836 18.318 89.106 18.12 89.646 18.12H96.126C97.242 18.12 97.926 18.66 98.178 19.74L104.712 46.686C104.784 46.938 104.892 47.064 105.036 47.064C105.216 47.064 105.324 46.938 105.36 46.686L112.164 19.47C112.38 18.57 112.956 18.12 113.892 18.12H120.264C120.804 18.12 121.074 18.318 121.074 18.714C121.074 19.038 120.84 19.254 120.372 19.362L119.13 19.578C118.374 19.722 117.87 19.92 117.618 20.172C117.366 20.424 117.258 20.928 117.294 21.684L118.374 53.436C118.41 54.192 118.536 54.696 118.752 54.948C118.968 55.2 119.454 55.398 120.21 55.542L121.452 55.758C121.92 55.866 122.154 56.082 122.154 56.406C122.154 56.802 121.884 57 121.344 57H111.57C111.03 57 110.76 56.802 110.76 56.406C110.76 56.082 110.994 55.866 111.462 55.758L112.704 55.542C113.46 55.398 113.964 55.2 114.216 54.948C114.468 54.696 114.576 54.192 114.54 53.436L113.622 22.548C113.622 22.296 113.532 22.17 113.352 22.17C113.208 22.134 113.1 22.224 113.028 22.44L104.82 55.596C104.748 55.956 104.622 56.19 104.442 56.298C104.298 56.406 104.154 56.46 104.01 56.46ZM132.753 57.486C131.025 57.486 129.477 56.91 128.109 55.758C126.741 54.606 125.643 52.986 124.815 50.898C124.023 48.774 123.627 46.326 123.627 43.554C123.627 40.71 124.041 38.208 124.869 36.048C125.697 33.888 126.831 32.196 128.271 30.972C129.711 29.748 131.313 29.136 133.077 29.136C135.201 29.136 136.911 30.018 138.207 31.782C139.539 33.51 140.205 36.336 140.205 40.26C140.205 41.448 139.755 42.042 138.855 42.042H128.595C127.875 42.042 127.515 42.456 127.515 43.284C127.515 47.1 128.073 49.962 129.189 51.87C130.305 53.778 131.727 54.732 133.455 54.732C134.823 54.732 135.939 54.246 136.803 53.274C137.667 52.302 138.369 50.664 138.909 48.36C139.017 47.964 139.251 47.766 139.611 47.766C140.043 47.766 140.205 48.126 140.097 48.846C139.521 52.05 138.603 54.3 137.343 55.596C136.083 56.856 134.553 57.486 132.753 57.486ZM128.433 40.692H133.887C135.615 40.692 136.479 39.792 136.479 37.992C136.479 35.652 136.191 33.816 135.615 32.484C135.039 31.152 134.175 30.486 133.023 30.486C131.619 30.486 130.431 31.296 129.459 32.916C128.523 34.536 127.911 36.84 127.623 39.828C127.551 40.404 127.821 40.692 128.433 40.692ZM143.2 57C142.66 57 142.39 56.802 142.39 56.406C142.39 56.082 142.624 55.866 143.092 55.758L143.74 55.65C144.496 55.506 144.982 55.29 145.198 55.002C145.45 54.678 145.576 54.138 145.576 53.382V35.238C145.576 34.59 145.468 34.158 145.252 33.942C145.072 33.69 144.73 33.528 144.226 33.456L143.092 33.294C142.624 33.258 142.39 33.06 142.39 32.7C142.39 32.412 142.678 32.214 143.254 32.106C144.37 31.926 145.216 31.638 145.792 31.242C146.404 30.846 147.034 30.36 147.682 29.784C148.006 29.46 148.276 29.298 148.492 29.298C148.816 29.298 148.978 29.514 148.978 29.946V32.376C148.978 32.628 149.086 32.826 149.302 32.97C149.518 33.078 149.752 33.006 150.004 32.754C151.48 31.35 152.758 30.396 153.838 29.892C154.954 29.388 156.07 29.136 157.186 29.136C158.23 29.136 159.148 29.424 159.94 30C160.768 30.54 161.38 31.368 161.776 32.484C161.884 32.772 162.064 32.952 162.316 33.024C162.604 33.06 162.874 32.952 163.126 32.7C164.602 31.332 165.88 30.396 166.96 29.892C168.04 29.388 169.138 29.136 170.254 29.136C171.766 29.136 172.99 29.712 173.926 30.864C174.898 31.98 175.384 33.636 175.384 35.832V53.382C175.384 54.138 175.492 54.678 175.708 55.002C175.96 55.29 176.464 55.488 177.22 55.596L178.408 55.758C178.804 55.83 179.002 56.046 179.002 56.406C179.002 56.802 178.786 57 178.354 57H169.12C168.616 57 168.364 56.802 168.364 56.406C168.364 56.046 168.562 55.83 168.958 55.758L169.714 55.65C170.542 55.542 171.082 55.326 171.334 55.002C171.586 54.678 171.712 54.138 171.712 53.382V36.426C171.712 34.662 171.388 33.42 170.74 32.7C170.128 31.98 169.282 31.62 168.202 31.62C167.122 31.62 166.132 31.962 165.232 32.646C164.368 33.294 163.666 34.176 163.126 35.292C162.586 36.372 162.316 37.578 162.316 38.91V53.382C162.316 54.138 162.442 54.678 162.694 55.002C162.946 55.29 163.468 55.488 164.26 55.596L165.448 55.758C165.844 55.83 166.042 56.046 166.042 56.406C166.042 56.802 165.826 57 165.394 57H156.214C155.71 57 155.458 56.802 155.458 56.406C155.458 56.046 155.656 55.83 156.052 55.758L156.808 55.65C157.564 55.542 158.05 55.326 158.266 55.002C158.518 54.678 158.644 54.138 158.644 53.382V36.426C158.644 34.662 158.32 33.42 157.672 32.7C157.06 31.98 156.214 31.62 155.134 31.62C154.054 31.62 153.064 31.962 152.164 32.646C151.3 33.294 150.598 34.176 150.058 35.292C149.518 36.372 149.248 37.578 149.248 38.91V53.382C149.248 54.138 149.356 54.678 149.572 55.002C149.824 55.326 150.328 55.524 151.084 55.596L152.542 55.758C152.938 55.83 153.136 56.028 153.136 56.352C153.136 56.784 152.866 57 152.326 57H143.2ZM190.726 57.486C189.25 57.486 187.828 57.018 186.46 56.082C185.668 55.542 184.948 55.686 184.3 56.514C183.94 56.91 183.67 57.162 183.49 57.27C183.31 57.414 183.13 57.486 182.95 57.486C182.554 57.486 182.41 57.234 182.518 56.73C182.662 55.902 182.77 54.84 182.842 53.544C182.914 52.248 182.95 50.52 182.95 48.36V22.44C182.95 21.792 182.842 21.36 182.626 21.144C182.446 20.892 182.104 20.73 181.6 20.658L180.466 20.496C180.07 20.424 179.872 20.208 179.872 19.848C179.872 19.488 180.07 19.272 180.466 19.2C181.474 18.984 182.32 18.732 183.004 18.444C183.688 18.156 184.264 17.868 184.732 17.58C185.308 17.22 185.74 17.04 186.028 17.04C186.424 17.04 186.622 17.328 186.622 17.904V31.242C186.622 31.53 186.73 31.728 186.946 31.836C187.198 31.908 187.468 31.8 187.756 31.512C189.304 29.928 190.996 29.136 192.832 29.136C194.488 29.136 195.946 29.694 197.206 30.81C198.502 31.89 199.51 33.402 200.23 35.346C200.986 37.29 201.364 39.576 201.364 42.204C201.364 45.192 200.896 47.838 199.96 50.142C199.024 52.446 197.746 54.246 196.126 55.542C194.542 56.838 192.742 57.486 190.726 57.486ZM190.618 56.136C192.634 56.136 194.254 54.948 195.478 52.572C196.738 50.196 197.368 46.992 197.368 42.96C197.368 39.252 196.828 36.426 195.748 34.482C194.668 32.538 193.138 31.566 191.158 31.566C189.934 31.566 188.872 32.07 187.972 33.078C187.072 34.086 186.622 35.49 186.622 37.29V50.898C186.622 52.518 186.982 53.796 187.702 54.732C188.458 55.668 189.43 56.136 190.618 56.136ZM213.911 57.486C212.183 57.486 210.635 56.91 209.267 55.758C207.899 54.606 206.801 52.986 205.973 50.898C205.181 48.774 204.785 46.326 204.785 43.554C204.785 40.71 205.199 38.208 206.027 36.048C206.855 33.888 207.989 32.196 209.429 30.972C210.869 29.748 212.471 29.136 214.235 29.136C216.359 29.136 218.069 30.018 219.365 31.782C220.697 33.51 221.363 36.336 221.363 40.26C221.363 41.448 220.913 42.042 220.013 42.042H209.753C209.033 42.042 208.673 42.456 208.673 43.284C208.673 47.1 209.231 49.962 210.347 51.87C211.463 53.778 212.885 54.732 214.613 54.732C215.981 54.732 217.097 54.246 217.961 53.274C218.825 52.302 219.527 50.664 220.067 48.36C220.175 47.964 220.409 47.766 220.769 47.766C221.201 47.766 221.363 48.126 221.255 48.846C220.679 52.05 219.761 54.3 218.501 55.596C217.241 56.856 215.711 57.486 213.911 57.486ZM209.591 40.692H215.045C216.773 40.692 217.637 39.792 217.637 37.992C217.637 35.652 217.349 33.816 216.773 32.484C216.197 31.152 215.333 30.486 214.181 30.486C212.777 30.486 211.589 31.296 210.617 32.916C209.681 34.536 209.069 36.84 208.781 39.828C208.709 40.404 208.979 40.692 209.591 40.692ZM231.054 32.916C232.53 30.396 234.312 29.136 236.4 29.136C237.588 29.136 238.47 29.496 239.046 30.216C239.622 30.9 239.91 31.674 239.91 32.538C239.91 33.222 239.73 33.78 239.37 34.212C239.046 34.644 238.524 34.86 237.804 34.86C237.228 34.86 236.796 34.734 236.508 34.482C236.256 34.194 236.04 33.87 235.86 33.51C235.716 33.15 235.536 32.844 235.32 32.592C235.104 32.304 234.744 32.16 234.24 32.16C233.592 32.16 232.98 32.556 232.404 33.348C231.828 34.104 231.342 35.13 230.946 36.426C230.586 37.722 230.406 39.198 230.406 40.854V53.382C230.406 54.138 230.514 54.678 230.73 55.002C230.982 55.326 231.486 55.524 232.242 55.596L233.7 55.758C234.096 55.83 234.294 56.028 234.294 56.352C234.294 56.784 234.024 57 233.484 57H224.358C223.818 57 223.548 56.802 223.548 56.406C223.548 56.082 223.782 55.866 224.25 55.758L224.898 55.65C225.654 55.506 226.14 55.29 226.356 55.002C226.608 54.678 226.734 54.138 226.734 53.382V35.238C226.734 34.59 226.626 34.158 226.41 33.942C226.23 33.69 225.888 33.528 225.384 33.456L224.25 33.294C223.782 33.258 223.548 33.06 223.548 32.7C223.548 32.412 223.836 32.214 224.412 32.106C225.528 31.926 226.374 31.638 226.95 31.242C227.562 30.846 228.192 30.36 228.84 29.784C229.164 29.46 229.434 29.298 229.65 29.298C229.974 29.298 230.136 29.514 230.136 29.946V32.862C230.136 33.114 230.244 33.276 230.46 33.348C230.676 33.384 230.874 33.24 231.054 32.916ZM241.766 57C241.226 57 240.956 56.802 240.956 56.406C240.956 56.082 241.19 55.866 241.658 55.758L242.9 55.542C244.124 55.326 244.736 54.624 244.736 53.436V21.684C244.736 20.928 244.61 20.424 244.358 20.172C244.142 19.92 243.656 19.722 242.9 19.578L241.658 19.362C241.19 19.254 240.956 19.038 240.956 18.714C240.956 18.318 241.226 18.12 241.766 18.12H252.674C255.482 18.12 257.912 18.948 259.964 20.604C262.016 22.224 263.6 24.51 264.716 27.462C265.832 30.414 266.39 33.834 266.39 37.722C266.39 41.646 265.796 45.048 264.608 47.928C263.456 50.808 261.818 53.04 259.694 54.624C257.57 56.208 255.05 57 252.134 57H241.766ZM252.35 55.596C255.554 55.596 257.984 54.066 259.64 51.006C261.332 47.946 262.178 43.518 262.178 37.722C262.178 31.962 261.368 27.498 259.748 24.33C258.164 21.126 255.806 19.524 252.674 19.524C249.938 19.524 248.57 20.838 248.57 23.466V51.654C248.57 53.094 248.858 54.12 249.434 54.732C250.046 55.308 251.018 55.596 252.35 55.596ZM276.88 32.916C278.356 30.396 280.138 29.136 282.226 29.136C283.414 29.136 284.296 29.496 284.872 30.216C285.448 30.9 285.736 31.674 285.736 32.538C285.736 33.222 285.556 33.78 285.196 34.212C284.872 34.644 284.35 34.86 283.63 34.86C283.054 34.86 282.622 34.734 282.334 34.482C282.082 34.194 281.866 33.87 281.686 33.51C281.542 33.15 281.362 32.844 281.146 32.592C280.93 32.304 280.57 32.16 280.066 32.16C279.418 32.16 278.806 32.556 278.23 33.348C277.654 34.104 277.168 35.13 276.772 36.426C276.412 37.722 276.232 39.198 276.232 40.854V53.382C276.232 54.138 276.34 54.678 276.556 55.002C276.808 55.326 277.312 55.524 278.068 55.596L279.526 55.758C279.922 55.83 280.12 56.028 280.12 56.352C280.12 56.784 279.85 57 279.31 57H270.184C269.644 57 269.374 56.802 269.374 56.406C269.374 56.082 269.608 55.866 270.076 55.758L270.724 55.65C271.48 55.506 271.966 55.29 272.182 55.002C272.434 54.678 272.56 54.138 272.56 53.382V35.238C272.56 34.59 272.452 34.158 272.236 33.942C272.056 33.69 271.714 33.528 271.21 33.456L270.076 33.294C269.608 33.258 269.374 33.06 269.374 32.7C269.374 32.412 269.662 32.214 270.238 32.106C271.354 31.926 272.2 31.638 272.776 31.242C273.388 30.846 274.018 30.36 274.666 29.784C274.99 29.46 275.26 29.298 275.476 29.298C275.8 29.298 275.962 29.514 275.962 29.946V32.862C275.962 33.114 276.07 33.276 276.286 33.348C276.502 33.384 276.7 33.24 276.88 32.916ZM291.912 24.33C291.156 24.33 290.508 24.06 289.968 23.52C289.464 22.98 289.212 22.296 289.212 21.468C289.212 20.64 289.464 19.974 289.968 19.47C290.508 18.93 291.156 18.66 291.912 18.66C292.668 18.66 293.298 18.93 293.802 19.47C294.306 19.974 294.558 20.64 294.558 21.468C294.558 22.296 294.306 22.98 293.802 23.52C293.298 24.06 292.668 24.33 291.912 24.33ZM287.376 57C286.836 57 286.566 56.802 286.566 56.406C286.566 56.082 286.8 55.866 287.268 55.758L287.916 55.65C288.816 55.506 289.392 55.29 289.644 55.002C289.896 54.678 290.022 54.138 290.022 53.382V35.238C290.022 34.59 289.914 34.158 289.698 33.942C289.518 33.69 289.176 33.528 288.672 33.456L287.538 33.294C287.07 33.258 286.836 33.06 286.836 32.7C286.836 32.412 287.124 32.214 287.7 32.106C288.816 31.926 289.716 31.638 290.4 31.242C291.084 30.846 291.75 30.36 292.398 29.784C292.722 29.46 292.992 29.298 293.208 29.298C293.532 29.298 293.694 29.514 293.694 29.946V53.382C293.694 54.138 293.802 54.678 294.018 55.002C294.234 55.326 294.648 55.524 295.26 55.596L296.61 55.758C297.006 55.83 297.204 56.028 297.204 56.352C297.204 56.784 296.934 57 296.394 57H287.376ZM308.255 57.486C307.931 57.486 307.697 57.288 307.553 56.892L300.371 33.078C300.119 32.214 299.867 31.656 299.615 31.404C299.399 31.152 299.039 30.972 298.535 30.864L297.725 30.702C297.257 30.594 297.023 30.36 297.023 30C297.023 29.64 297.275 29.46 297.779 29.46H306.689C307.193 29.46 307.445 29.64 307.445 30C307.445 30.396 307.211 30.63 306.743 30.702L305.879 30.81C305.015 30.918 304.475 31.134 304.259 31.458C304.043 31.746 304.043 32.286 304.259 33.078L308.741 48.684C308.849 49.08 309.029 49.278 309.281 49.278C309.533 49.278 309.713 49.08 309.821 48.684L314.195 34.05C314.483 33.078 314.555 32.358 314.411 31.89C314.303 31.386 313.799 31.062 312.899 30.918L311.765 30.702C311.297 30.594 311.063 30.36 311.063 30C311.063 29.64 311.315 29.46 311.819 29.46H318.677C319.181 29.46 319.433 29.658 319.433 30.054C319.433 30.414 319.217 30.666 318.785 30.81L318.299 30.972C317.759 31.152 317.291 31.476 316.895 31.944C316.535 32.412 316.175 33.222 315.815 34.374L308.957 56.892C308.813 57.288 308.579 57.486 308.255 57.486ZM328.714 57.486C326.986 57.486 325.438 56.91 324.07 55.758C322.702 54.606 321.604 52.986 320.776 50.898C319.984 48.774 319.588 46.326 319.588 43.554C319.588 40.71 320.002 38.208 320.83 36.048C321.658 33.888 322.792 32.196 324.232 30.972C325.672 29.748 327.274 29.136 329.038 29.136C331.162 29.136 332.872 30.018 334.168 31.782C335.5 33.51 336.166 36.336 336.166 40.26C336.166 41.448 335.716 42.042 334.816 42.042H324.556C323.836 42.042 323.476 42.456 323.476 43.284C323.476 47.1 324.034 49.962 325.15 51.87C326.266 53.778 327.688 54.732 329.416 54.732C330.784 54.732 331.9 54.246 332.764 53.274C333.628 52.302 334.33 50.664 334.87 48.36C334.978 47.964 335.212 47.766 335.572 47.766C336.004 47.766 336.166 48.126 336.058 48.846C335.482 52.05 334.564 54.3 333.304 55.596C332.044 56.856 330.514 57.486 328.714 57.486ZM324.394 40.692H329.848C331.576 40.692 332.44 39.792 332.44 37.992C332.44 35.652 332.152 33.816 331.576 32.484C331 31.152 330.136 30.486 328.984 30.486C327.58 30.486 326.392 31.296 325.42 32.916C324.484 34.536 323.872 36.84 323.584 39.828C323.512 40.404 323.782 40.692 324.394 40.692Z" fill="black"/>
<g clip-path="url(#clip1_4_2)">
<circle cx="38.5" cy="38.5" r="38.5" fill="#E84118"/>
<g clip-path="url(#clip2_4_2)">
<path d="M50.1187 34.8879C52.8174 35.2626 55.4373 35.8336 57.9695 36.6188C59.0735 36.9668 59.7482 38.1088 59.5379 39.2687L57.4 50.7784C57.1984 51.8669 56.2609 52.6609 55.1656 52.6609H53.8338L52.2479 61.1906C52.0463 62.2791 51.1088 63.0732 50.0135 63.0732H41.7071L42.6622 57.8626H45.8778L50.1187 34.8879Z" fill="white"/>
<path d="M44.1779 11.0209C48.2961 10.9852 52.0463 13.4388 53.6935 17.2486C55.3496 21.0584 54.596 25.5106 51.7834 28.5441C48.962 31.5866 44.6248 32.6305 40.7519 31.2208C45.3433 25.5195 45.3433 17.3467 40.7519 11.6454C41.8647 11.2796 42.9687 11.0209 44.1779 11.0209Z" fill="white"/>
<path d="M28.7391 31.8364C23.0526 31.8364 18.4437 27.179 18.4437 21.4242C18.4437 15.6783 23.0526 11.012 28.7391 11.012C34.4257 11.012 39.0346 15.6694 39.0346 21.4242C39.0346 27.179 34.4257 31.8364 28.7391 31.8364ZM28.7391 34.4417C33.5495 34.4417 38.1671 35.2358 42.5131 36.6187C43.6171 36.9756 44.2918 38.1087 44.0815 39.2597L41.9611 50.7694C41.7596 51.8668 40.822 52.6609 39.7268 52.6609H38.3949L36.809 61.1905C36.6075 62.2791 35.6699 63.0731 34.5747 63.0731H22.8948C21.7996 63.0731 20.862 62.2791 20.6605 61.1905L19.0833 52.6609H17.7515C16.6562 52.6609 15.7187 51.8668 15.5172 50.7694L13.4055 39.2597C13.1952 38.0998 13.8699 36.9667 14.9739 36.6187C19.4163 35.1912 24.0602 34.4596 28.7391 34.4417Z" fill="white"/>
</g>
</g>
</g>
<defs>
<clipPath id="clip0_4_2">
<rect width="338" height="77" fill="white"/>
</clipPath>
<clipPath id="clip1_4_2">
<rect width="77" height="77" fill="white"/>
</clipPath>
<clipPath id="clip2_4_2">
<rect width="50.82" height="56.21" fill="white" transform="translate(13.09 10.78)"/>
</clipPath>
</defs>
</svg>
