<?xml version="1.0" encoding="UTF-8"?>
<svg width="324px" height="50px" viewBox="0 0 324 50" version="1.1"
    xmlns="http://www.w3.org/2000/svg"
    xmlns:xlink="http://www.w3.org/1999/xlink">
    <title>MemberDrive.org Logo</title>
    <g id="logotype-icon" stroke="none" stroke-width="1" fill-rule="evenodd">
        <path d="M98.2796,48.1265 C99.9708,48.1265 101.5865,47.6886 103.1267,46.8128 C104.6669,45.937 106.2222,44.5478 107.7926,42.6452 C108.3664,41.9506 108.6533,41.0144 108.6533,39.8366 C108.6533,39.2024 108.54005,38.7041 108.31355,38.3417 C108.08705,37.9793 107.7775,37.7981 107.3849,37.7981 C106.9319,37.7981 106.5242,38.0095 106.1618,38.4323 C104.8632,39.9725 103.73825,41.0748 102.78695,41.7392 C101.83565,42.4036 100.8617,42.7358 99.8651,42.7358 C98.8081,42.7358 97.98515,42.4187 97.39625,41.7845 C96.80735,41.1503 96.5129,40.199 96.5129,38.9306 C96.5129,37.8434 96.6639,36.5448 96.9659,35.0348 L96.9659,35.0348 L99.7292,22.079 C100.1218,20.1764 100.3181,18.5607 100.3181,17.2319 C100.3181,14.7857 99.75185,12.8831 98.61935,11.5241 C97.48685,10.1651 95.8636,9.4856 93.7496,9.4856 C91.1222,9.4856 88.7968,10.3916 86.7734,12.2036 C84.75,14.0156 82.9833,17.0054 81.4733,21.173 C81.7451,19.6932 81.881,18.455 81.881,17.4584 C81.881,14.9216 81.31475,12.9586 80.18225,11.5694 C79.04975,10.1802 77.502,9.4856 75.539,9.4856 C72.972,9.4856 70.6164,10.45955 68.4722,12.40745 C66.328,14.35535 64.3952,17.7906 62.6738,22.7132 C62.7342,22.4414 62.8248,21.9582 62.9456,21.2636 C63.0664,20.569 63.2023,19.67055 63.3533,18.56825 C63.5043,17.46595 63.5798,16.5071 63.5798,15.6917 C63.5798,13.6683 63.13435,12.1281 62.24345,11.0711 C61.35255,10.0141 60.0766,9.4856 58.4156,9.4856 C56.6338,9.4856 54.852,10.03675 53.0702,11.13905 C51.2884,12.24135 49.6727,13.8042 48.2231,15.8276 C47.7701,16.4618 47.44545,17.02805 47.24915,17.52635 C47.05285,18.02465 46.9547,18.5154 46.9547,18.9986 C46.9547,19.512 47.11325,19.97255 47.43035,20.38025 C47.74745,20.78795 48.1174,20.9918 48.5402,20.9918 C49.0536,20.9918 49.5217,20.7049 49.9445,20.1311 C51.2733,18.3795 52.48885,17.10355 53.59115,16.30325 C54.69345,15.50295 55.6372,15.1028 56.4224,15.1028 C57.419,15.1028 57.9173,15.7823 57.9173,17.1413 C57.9173,18.5909 57.7814,20.4029 57.5096,22.5773 C57.0566,26.0503 56.4375,30.1575 55.6523,34.8989 C55.1993,37.4659 54.87465,39.48175 54.67835,40.94645 C54.48205,42.41115 54.3839,43.6116 54.3839,44.5478 C54.3839,45.937 54.6255,46.88075 55.1087,47.37905 C55.5919,47.87735 56.3922,48.1265 57.5096,48.1265 C58.6874,48.1265 59.48015,47.8245 59.88785,47.2205 C60.29555,46.6165 60.6051,45.5444 60.8165,44.0042 C61.8131,36.726 63.05885,30.95025 64.55375,26.67695 C66.04865,22.40365 67.5813,19.42895 69.1517,17.75285 C70.7221,16.07675 72.2472,15.2387 73.727,15.2387 C74.6028,15.2387 75.25965,15.5105 75.69755,16.0541 C76.13545,16.5977 76.3544,17.4433 76.3544,18.5909 C76.3544,20.7049 75.6598,25.4161 74.2706,32.7245 C73.7572,35.4425 73.3344,37.80565 73.0022,39.81395 C72.67,41.82225 72.5039,43.4455 72.5039,44.6837 C72.5039,46.0125 72.73795,46.9185 73.20605,47.4017 C73.67415,47.8849 74.4216,48.1265 75.4484,48.1265 C76.6262,48.1265 77.47935,47.81695 78.00785,47.19785 C78.53635,46.57875 78.9063,45.3632 79.1177,43.5512 C79.9935,36.7864 81.13355,31.29 82.53785,27.062 C83.94215,22.834 85.42195,19.80645 86.97725,17.97935 C88.53255,16.15225 90.0199,15.2387 91.4393,15.2387 C92.1943,15.2387 92.77565,15.50295 93.18335,16.03145 C93.59105,16.55995 93.7949,17.3527 93.7949,18.4097 C93.7949,19.0137 93.7496,19.62525 93.659,20.24435 C93.5684,20.86345 93.4476,21.5203 93.2966,22.2149 C93.1456,22.9095 93.0399,23.3927 92.9795,23.6645 L92.9795,23.6645 L91.1675,31.9544 C90.4427,35.3368 90.0803,37.9189 90.0803,39.7007 C90.0803,42.2677 90.8051,44.31375 92.2547,45.83885 C93.7043,47.36395 95.7126,48.1265 98.2796,48.1265 Z M114.3158,48.1265 C116.6412,48.1265 118.82315,47.5527 120.86165,46.4051 C122.90015,45.2575 124.4781,44.0042 125.5955,42.6452 C126.1693,41.9808 126.4562,41.0446 126.4562,39.8366 C126.4562,39.2024 126.34295,38.7041 126.11645,38.3417 C125.88995,37.9793 125.5804,37.7981 125.1878,37.7981 C124.7348,37.7981 124.3271,38.0095 123.9647,38.4323 C122.6963,39.9725 121.19385,41.21825 119.45735,42.16955 C117.72085,43.12085 116.1731,43.5965 114.8141,43.5965 C112.7001,43.5965 111.2656,42.9019 110.5106,41.5127 C114.0742,40.6369 116.60345,39.45155 118.09835,37.95665 C119.59325,36.46175 120.3407,34.6724 120.3407,32.5886 C120.3407,30.8068 119.8122,29.39495 118.7552,28.35305 C117.6982,27.31115 116.2939,26.7902 114.5423,26.7902 C112.5793,26.7902 110.82015,27.3187 109.26485,28.3757 C107.70955,29.4327 106.494,30.85965 105.6182,32.65655 C104.7424,34.45345 104.3045,36.3938 104.3045,38.4776 C104.3045,41.4674 105.1803,43.823 106.9319,45.5444 C108.6835,47.2658 111.1448,48.1265 114.3158,48.1265 Z M109.7858,37.9793 L109.7858,37.8887 C109.7858,36.0465 110.17085,34.4761 110.94095,33.1775 C111.71105,31.8789 112.6548,31.2296 113.7722,31.2296 C114.3158,31.2296 114.74615,31.40325 115.06325,31.75055 C115.38035,32.09785 115.5389,32.5584 115.5389,33.1322 C115.5389,34.2496 115.0255,35.2311 113.9987,36.0767 C112.9719,36.9223 111.5676,37.5565 109.7858,37.9793 L109.7858,37.9793 Z M150.0122,48.1265 C151.9148,48.1265 153.61355,47.6131 155.10845,46.5863 C156.60335,45.5595 158.0001,44.2458 159.2987,42.6452 C159.8725,41.9808 160.1594,41.0446 160.1594,39.8366 C160.1594,39.2024 160.04615,38.7041 159.81965,38.3417 C159.59315,37.9793 159.2836,37.7981 158.891,37.7981 C158.438,37.7981 158.0303,38.0095 157.6679,38.4323 C156.2787,40.0933 155.16885,41.29375 154.33835,42.03365 C153.50785,42.77355 152.7906,43.1435 152.1866,43.1435 C151.3108,43.1435 150.8729,42.5395 150.8729,41.3315 C150.8729,40.4859 151.1598,38.7494 151.7336,36.122 C152.398,33.0416 152.7302,30.9125 152.7302,29.7347 C152.7302,27.7717 151.7487,26.7902 149.7857,26.7902 C148.1851,26.7902 146.4637,27.6358 144.6215,29.327 C142.7793,31.0182 141.1032,33.7211 139.5932,37.4357 C139.6838,36.8921 139.8499,36.0767 140.0915,34.9895 C140.6653,32.4527 140.9522,30.7011 140.9522,29.7347 C140.9522,28.7381 140.73325,27.9982 140.29535,27.515 C139.85745,27.0318 139.11,26.7902 138.053,26.7902 C136.996,26.7902 135.87105,27.19035 134.67815,27.99065 C133.48525,28.79095 132.32255,30.0065 131.19005,31.6373 C130.05755,33.2681 129.0836,35.2613 128.2682,37.6169 C128.389,36.2881 128.54,35.17825 128.7212,34.28735 C128.9024,33.39645 129.144,32.347 129.446,31.139 C129.899,29.4478 130.1255,28.3606 130.1255,27.8774 C130.1255,27.4546 130.0047,27.1677 129.7631,27.0167 C129.5215,26.8657 129.0987,26.7902 128.4947,26.7902 C127.3773,26.7902 126.50905,26.99405 125.88995,27.40175 C125.27085,27.80945 124.8254,28.4512 124.5536,29.327 C123.4362,32.8604 122.8775,36.5901 122.8775,40.5161 C122.8775,43.1737 123.11155,45.1065 123.57965,46.3145 C124.04775,47.5225 124.8556,48.1265 126.0032,48.1265 C126.9394,48.1265 127.62645,47.87735 128.06435,47.37905 C128.50225,46.88075 128.8873,45.9219 129.2195,44.5025 C129.6121,42.8717 130.13305,41.2107 130.78235,39.5195 C131.43165,37.8283 132.1036,36.4391 132.7982,35.3519 C133.4928,34.2647 134.0666,33.7211 134.5196,33.7211 C134.8518,33.7211 135.0179,33.9627 135.0179,34.4459 C135.0179,35.0499 134.8971,36.3183 134.6555,38.2511 C134.3535,40.4255 134.2025,42.0865 134.2025,43.2341 C134.2025,44.5931 134.45165,45.74825 134.94995,46.69955 C135.44825,47.65085 136.1957,48.1265 137.1923,48.1265 C138.1587,48.1265 138.86085,47.8849 139.29875,47.4017 C139.73665,46.9185 140.1217,45.9521 140.4539,44.5025 C140.9069,42.6603 141.4958,40.9087 142.2206,39.2477 C142.9454,37.5867 143.6702,36.25035 144.395,35.23865 C145.1198,34.22695 145.6785,33.7211 146.0711,33.7211 C146.4033,33.7211 146.5694,33.9627 146.5694,34.4459 C146.5694,35.1707 146.3731,36.4844 145.9805,38.387 C145.5577,40.5614 145.3463,42.0714 145.3463,42.917 C145.3463,44.6082 145.7389,45.89925 146.5241,46.79015 C147.3093,47.68105 148.472,48.1265 150.0122,48.1265 Z M165.5501,48.1265 C167.5735,48.1265 169.42325,47.3564 171.09935,45.8162 C172.77545,44.276 173.9155,42.2526 174.5195,39.746 C176.6939,39.6554 178.6871,39.293 180.4991,38.6588 C180.9521,38.5078 181.2843,38.22845 181.4957,37.82075 C181.7071,37.41305 181.8128,36.8317 181.8128,36.0767 C181.8128,35.4727 181.7071,34.9744 181.4957,34.5818 C181.2843,34.1892 180.9823,33.9929 180.5897,33.9929 C180.3481,33.9929 180.1367,34.0231 179.9555,34.0835 C177.9925,34.5969 176.3013,34.8989 174.8819,34.9895 C174.6403,32.7547 173.8853,30.87475 172.6169,29.34965 C171.3485,27.82455 169.7026,26.9865 167.6792,26.8355 C169.8536,24.1477 171.4089,21.5807 172.3451,19.1345 C173.2813,16.6883 173.7494,14.227 173.7494,11.7506 C173.7494,9.848 173.3266,8.30025 172.481,7.10735 C171.6354,5.91445 170.518,5.318 169.1288,5.318 C166.5618,5.318 164.34965,6.92615 162.49235,10.14245 C160.63505,13.35875 159.2232,17.25455 158.2568,21.82985 C157.2904,26.40515 156.8072,30.6407 156.8072,34.5365 C156.8072,38.9457 157.5018,42.313 158.891,44.6384 C160.2802,46.9638 162.4999,48.1265 165.5501,48.1265 Z M162.7868,29.9159 C163.0888,26.2617 163.5418,22.8944 164.1458,19.814 C164.7498,16.7336 165.40665,14.29495 166.11635,12.49805 C166.82605,10.70115 167.4829,9.8027 168.0869,9.8027 C168.4795,9.8027 168.78905,10.0594 169.01555,10.5728 C169.24205,11.0862 169.3553,11.8261 169.3553,12.7925 C169.3553,14.9669 168.75885,17.45085 167.56595,20.24435 C166.37305,23.03785 164.78,26.2617 162.7868,29.9159 Z M165.7313,43.3247 C164.8555,43.3247 164.09295,42.8717 163.44365,41.9657 C162.79435,41.0597 162.4697,39.746 162.4697,38.0246 C162.4697,35.971 162.88495,34.33265 163.71545,33.10955 C164.54595,31.88645 165.5803,31.2749 166.8185,31.2749 L166.8185,31.2749 L166.9544,31.2749 C166.8336,31.9997 166.7732,32.5735 166.7732,32.9963 C166.7732,34.1439 167.02235,35.2311 167.52065,36.2579 C168.01895,37.2847 168.7362,38.1152 169.6724,38.7494 C169.4308,40.2292 168.9476,41.3617 168.2228,42.1469 C167.498,42.9321 166.6675,43.3247 165.7313,43.3247 Z M187.2488,48.1265 C189.5742,48.1265 191.75615,47.5527 193.79465,46.4051 C195.83315,45.2575 197.4111,44.0042 198.5285,42.6452 C199.1023,41.9808 199.3892,41.0446 199.3892,39.8366 C199.3892,39.2024 199.27595,38.7041 199.04945,38.3417 C198.82295,37.9793 198.5134,37.7981 198.1208,37.7981 C197.6678,37.7981 197.2601,38.0095 196.8977,38.4323 C195.6293,39.9725 194.12685,41.21825 192.39035,42.16955 C190.65385,43.12085 189.1061,43.5965 187.7471,43.5965 C185.6331,43.5965 184.1986,42.9019 183.4436,41.5127 C187.0072,40.6369 189.53645,39.45155 191.03135,37.95665 C192.52625,36.46175 193.2737,34.6724 193.2737,32.5886 C193.2737,30.8068 192.7452,29.39495 191.6882,28.35305 C190.6312,27.31115 189.2269,26.7902 187.4753,26.7902 C185.5123,26.7902 183.75315,27.3187 182.19785,28.3757 C180.64255,29.4327 179.427,30.85965 178.5512,32.65655 C177.6754,34.45345 177.2375,36.3938 177.2375,38.4776 C177.2375,41.4674 178.1133,43.823 179.8649,45.5444 C181.6165,47.2658 184.0778,48.1265 187.2488,48.1265 Z M182.7188,37.9793 L182.7188,37.8887 C182.7188,36.0465 183.10385,34.4761 183.87395,33.1775 C184.64405,31.8789 185.5878,31.2296 186.7052,31.2296 C187.2488,31.2296 187.67915,31.40325 187.99625,31.75055 C188.31335,32.09785 188.4719,32.5584 188.4719,33.1322 C188.4719,34.2496 187.9585,35.2311 186.9317,36.0767 C185.9049,36.9223 184.5006,37.5565 182.7188,37.9793 L182.7188,37.9793 Z M198.9362,48.1265 C199.8724,48.1265 200.55945,47.87735 200.99735,47.37905 C201.43525,46.88075 201.8203,45.9219 202.1525,44.5025 C202.6055,42.6603 203.1944,40.9087 203.9192,39.2477 C204.644,37.5867 205.37635,36.25035 206.11625,35.23865 C206.85615,34.22695 207.4526,33.7211 207.9056,33.7211 C208.2378,33.7211 208.4039,33.9627 208.4039,34.4459 C208.4039,34.6573 208.3737,35.065 208.3133,35.669 C208.2227,36.122 208.1774,36.575 208.1774,37.028 C208.1774,38.4172 208.59265,39.5195 209.42315,40.3349 C210.25365,41.1503 211.4692,41.558 213.0698,41.558 C214.3382,41.558 215.53865,41.24845 216.67115,40.62935 C217.80365,40.01025 218.7927,39.2628 219.6383,38.387 C220.2423,37.7528 220.5443,36.877 220.5443,35.7596 C220.5443,35.1858 220.43105,34.72525 220.20455,34.37795 C219.97805,34.03065 219.6685,33.857 219.2759,33.857 C218.8531,33.857 218.4454,34.0533 218.0528,34.4459 C216.724,35.7747 215.6368,36.4391 214.7912,36.4391 C214.0362,36.4391 213.6587,35.9106 213.6587,34.8536 C213.6587,34.5516 213.7795,33.7966 214.0211,32.5886 C214.2929,31.0786 214.4288,30.1273 214.4288,29.7347 C214.4288,27.7717 213.4473,26.7902 211.4843,26.7902 C210.4877,26.7902 209.39295,27.1375 208.20005,27.8321 C207.00715,28.5267 205.7916,29.6894 204.5534,31.3202 C203.3152,32.951 202.1978,35.065 201.2012,37.6622 C201.322,36.3334 201.473,35.216 201.6542,34.31 C201.8354,33.404 202.077,32.347 202.379,31.139 C202.832,29.4478 203.0585,28.3606 203.0585,27.8774 C203.0585,27.4546 202.9377,27.1677 202.6961,27.0167 C202.4545,26.8657 202.0317,26.7902 201.4277,26.7902 C200.3103,26.7902 199.44205,26.99405 198.82295,27.40175 C198.20385,27.80945 197.7584,28.4512 197.4866,29.327 C196.3692,32.8604 195.8105,36.5901 195.8105,40.5161 C195.8105,43.1737 196.04455,45.1065 196.51265,46.3145 C196.98075,47.5225 197.7886,48.1265 198.9362,48.1265 Z M228.1094,48.1265 C232.9112,48.1265 237.0486,47.1903 240.5216,45.3179 C243.9946,43.4455 246.6371,40.81055 248.4491,37.41305 C250.2611,34.01555 251.1671,30.0367 251.1671,25.4765 C251.1671,21.9733 250.4423,18.9835 248.9927,16.5071 C247.5431,14.0307 245.4744,12.15075 242.7866,10.86725 C240.0988,9.58375 236.9127,8.942 233.2283,8.942 C230.6311,8.942 227.9282,9.31195 225.1196,10.05185 C222.311,10.79175 219.8648,11.8714 217.781,13.2908 C217.2072,13.6834 216.7995,14.11375 216.5579,14.58185 C216.3163,15.04995 216.1955,15.6464 216.1955,16.3712 C216.1955,17.0054 216.3465,17.54145 216.6485,17.97935 C216.9505,18.41725 217.3582,18.6362 217.8716,18.6362 C218.3246,18.6362 218.7474,18.5003 219.14,18.2285 C221.0426,16.9903 223.17925,15.9937 225.54995,15.2387 C227.92065,14.4837 230.314,14.1062 232.73,14.1062 C236.4748,14.1062 239.374,15.0877 241.4276,17.0507 C243.4812,19.0137 244.508,21.7921 244.508,25.3859 C244.508,30.7313 243.20185,35.0046 240.58955,38.2058 C237.97725,41.407 234.0286,43.0076 228.7436,43.0076 C227.596,43.0076 226.5692,42.9623 225.6632,42.8717 C225.9954,39.1873 226.5541,35.31415 227.3393,31.25225 C228.1245,27.19035 228.9097,23.9514 229.6949,21.5354 C229.8761,20.9918 229.9667,20.5086 229.9667,20.0858 C229.9667,19.059 229.0456,18.5456 227.2034,18.5456 C226.1766,18.5456 225.3461,18.6966 224.7119,18.9986 C224.0777,19.3006 223.6549,19.8291 223.4435,20.5841 C222.3261,24.6611 221.3748,28.89665 220.5896,33.29075 C219.8044,37.68485 219.3061,41.3768 219.0947,44.3666 C219.0343,45.4538 219.2306,46.239 219.6836,46.7222 C220.1366,47.2054 220.9671,47.5225 222.1751,47.6735 C224.3797,47.9755 226.3578,48.1265 228.1094,48.1265 Z M256.9655,48.1265 C257.9017,48.1265 258.58875,47.87735 259.02665,47.37905 C259.46455,46.88075 259.8496,45.9219 260.1818,44.5025 C260.6348,42.6603 261.2237,40.9087 261.9485,39.2477 C262.6733,37.5867 263.40565,36.25035 264.14555,35.23865 C264.88545,34.22695 265.4819,33.7211 265.9349,33.7211 C266.2671,33.7211 266.4332,33.9627 266.4332,34.4459 C266.4332,34.6573 266.403,35.065 266.3426,35.669 C266.252,36.122 266.2067,36.575 266.2067,37.028 C266.2067,38.4172 266.62195,39.5195 267.45245,40.3349 C268.28295,41.1503 269.4985,41.558 271.0991,41.558 C272.3675,41.558 273.56795,41.24845 274.70045,40.62935 C275.83295,40.01025 276.822,39.2628 277.6676,38.387 C278.2716,37.7528 278.5736,36.877 278.5736,35.7596 C278.5736,35.1858 278.46035,34.72525 278.23385,34.37795 C278.00735,34.03065 277.6978,33.857 277.3052,33.857 C276.8824,33.857 276.4747,34.0533 276.0821,34.4459 C274.7533,35.7747 273.6661,36.4391 272.8205,36.4391 C272.0655,36.4391 271.688,35.9106 271.688,34.8536 C271.688,34.5516 271.8088,33.7966 272.0504,32.5886 C272.3222,31.0786 272.4581,30.1273 272.4581,29.7347 C272.4581,27.7717 271.4766,26.7902 269.5136,26.7902 C268.517,26.7902 267.42225,27.1375 266.22935,27.8321 C265.03645,28.5267 263.8209,29.6894 262.5827,31.3202 C261.3445,32.951 260.2271,35.065 259.2305,37.6622 C259.3513,36.3334 259.5023,35.216 259.6835,34.31 C259.8647,33.404 260.1063,32.347 260.4083,31.139 C260.8613,29.4478 261.0878,28.3606 261.0878,27.8774 C261.0878,27.4546 260.967,27.1677 260.7254,27.0167 C260.4838,26.8657 260.061,26.7902 259.457,26.7902 C258.3396,26.7902 257.47135,26.99405 256.85225,27.40175 C256.23315,27.80945 255.7877,28.4512 255.5159,29.327 C254.3985,32.8604 253.8398,36.5901 253.8398,40.5161 C253.8398,43.1737 254.07385,45.1065 254.54195,46.3145 C255.01005,47.5225 255.8179,48.1265 256.9655,48.1265 Z M280.295,23.8004 C281.5936,23.8004 282.6355,23.44555 283.4207,22.73585 C284.2059,22.02615 284.5985,21.0673 284.5985,19.8593 C284.5985,18.8627 284.2512,18.0926 283.5566,17.549 C282.862,17.0054 281.956,16.7336 280.8386,16.7336 C279.6004,16.7336 278.56605,17.08845 277.73555,17.79815 C276.90505,18.50785 276.4898,19.3912 276.4898,20.4482 C276.4898,21.5052 276.8069,22.32815 277.4411,22.91705 C278.0753,23.50595 279.0266,23.8004 280.295,23.8004 Z M279.9326,48.1265 C282.5298,48.1265 285.3233,46.2994 288.3131,42.6452 C288.8869,41.9808 289.1738,41.0446 289.1738,39.8366 C289.1738,39.2024 289.06055,38.7041 288.83405,38.3417 C288.60755,37.9793 288.298,37.7981 287.9054,37.7981 C287.4524,37.7981 287.0447,38.0095 286.6823,38.4323 C285.3233,40.0631 284.2361,41.256 283.4207,42.011 C282.6053,42.766 281.9258,43.1435 281.3822,43.1435 C280.8084,43.1435 280.4007,42.9019 280.1591,42.4187 C279.9175,41.9355 279.7967,41.2409 279.7967,40.3349 C279.7967,39.1571 280.1591,36.9072 280.8839,33.5852 C281.4577,30.837 281.7446,29.0854 281.7446,28.3304 C281.7446,27.3036 280.9745,26.7902 279.4343,26.7902 C278.4377,26.7902 277.7129,26.9714 277.2599,27.3338 C276.8069,27.6962 276.4445,28.3606 276.1727,29.327 C275.6291,31.1692 275.18365,33.15485 274.83635,35.28395 C274.48905,37.41305 274.3154,39.1571 274.3154,40.5161 C274.3154,42.8113 274.76085,44.6535 275.65175,46.0427 C276.54265,47.4319 277.9696,48.1265 279.9326,48.1265 Z M290.8499,48.1265 C291.9673,48.1265 292.9639,47.8094 293.8397,47.1752 C294.7155,46.541 295.7574,45.3632 296.9654,43.6418 C298.0224,42.1318 298.9888,40.6671 299.8646,39.2477 C301.0424,39.6101 302.2957,39.7913 303.6245,39.7913 C305.1949,39.7913 306.6747,39.5648 308.0639,39.1118 C308.7887,38.8702 309.3323,38.48515 309.6947,37.95665 C310.0571,37.42815 310.2383,36.6958 310.2383,35.7596 C310.2383,35.2462 310.1175,34.8385 309.8759,34.5365 C309.6343,34.2345 309.287,34.0835 308.834,34.0835 C308.6226,34.0835 308.4716,34.0986 308.381,34.1288 L308.381,34.1288 L307.1579,34.3553 C305.2553,34.7479 303.7302,34.9744 302.5826,35.0348 C303.3074,33.2832 303.6698,31.7279 303.6698,30.3689 C303.6698,29.1911 303.398,28.29265 302.8544,27.67355 C302.3108,27.05445 301.6011,26.7449 300.7253,26.7449 C299.7287,26.7449 298.8378,27.0469 298.0526,27.6509 C297.2674,28.2549 296.6483,29.0401 296.1953,30.0065 C295.7423,30.9729 295.5158,31.9695 295.5158,32.9963 C295.5158,34.2043 295.7423,35.2462 296.1953,36.122 C295.2893,37.7226 293.9303,39.8668 292.1183,42.5546 C291.6955,36.9978 291.4841,32.4829 291.4841,29.0099 C291.4841,28.1945 291.29535,27.61315 290.91785,27.26585 C290.54035,26.91855 289.959,26.7449 289.1738,26.7449 C288.147,26.7449 287.3769,26.9412 286.8635,27.3338 C286.3501,27.7264 286.0783,28.421 286.0481,29.4176 L286.0481,29.4176 L286.0481,31.0031 C286.0481,34.1741 286.2293,37.8736 286.5917,42.1016 C286.7729,44.1854 287.21835,45.7105 287.92805,46.6769 C288.63775,47.6433 289.6117,48.1265 290.8499,48.1265 Z M314.7683,48.1265 C316.6709,48.1265 318.30925,47.7641 319.68335,47.0393 C321.05745,46.3145 322.1673,45.3028 323.0129,44.0042 C323.5263,43.219 323.783,42.2828 323.783,41.1956 C323.783,40.5614 323.66975,40.0631 323.44325,39.7007 C323.21675,39.3383 322.9072,39.1571 322.5146,39.1571 C322.0616,39.1571 321.6539,39.3836 321.2915,39.8366 C320.2345,41.1956 319.30585,42.162 318.50555,42.7358 C317.70525,43.3096 316.686,43.5965 315.4478,43.5965 C313.7264,43.5965 312.5033,42.9019 311.7785,41.5127 C315.3723,40.6369 317.91665,39.45155 319.41155,37.95665 C320.90645,36.46175 321.6539,34.6724 321.6539,32.5886 C321.6539,30.8068 321.1254,29.39495 320.0684,28.35305 C319.0114,27.31115 317.6071,26.7902 315.8555,26.7902 C313.8925,26.7902 312.13335,27.3187 310.57805,28.3757 C309.02275,29.4327 307.8072,30.85965 306.9314,32.65655 C306.0556,34.45345 305.6177,36.3938 305.6177,38.4776 C305.6177,41.4372 306.418,43.78525 308.0186,45.52175 C309.6192,47.25825 311.8691,48.1265 314.7683,48.1265 Z M311.099,37.9793 L311.099,37.8887 C311.099,36.0465 311.48405,34.4761 312.25415,33.1775 C313.02425,31.8789 313.968,31.2296 315.0854,31.2296 C315.629,31.2296 316.05935,31.40325 316.37645,31.75055 C316.69355,32.09785 316.8521,32.5584 316.8521,33.1322 C316.8521,34.2496 316.3387,35.2311 315.3119,36.0767 C314.2851,36.9223 312.8808,37.5565 311.099,37.9793 L311.099,37.9793 Z" id="MemberDrive" fill-rule="nonzero"></path>
        <g id="user-group" transform="translate(0.000000, 1.000000)" fill-rule="nonzero">
            <path d="M14.7391543,19.2002131 C9.40131159,19.2002131 5.07413509,14.9021785 5.07413509,9.6002841 C5.07413509,4.29838973 9.40131159,0.000355123662 14.7391543,0.000355123662 C20.076997,0.000355123662 24.4041735,4.29838973 24.4041735,9.6002841 C24.4041735,14.9021785 20.076997,19.2002131 14.7391543,19.2002131 Z M14.7391543,21.6001953 C19.9341021,21.6001953 24.8874245,22.5601882 29.4783086,24.216176 L26.8204283,38.400071 L23.8001098,38.400071 L21.9879187,48 L7.4903899,48 L5.67819879,38.400071 L2.65788029,38.400071 L0,24.216176 C4.72296543,22.5011408 9.71048463,21.6159303 14.7391543,21.6001953 Z M34.8182317,22.0081923 C38.0076881,22.4401891 41.0763317,23.1601838 44,24.216176 L41.3179572,38.400071 L38.2976387,38.400071 L36.4854476,48 L26.9170785,48 L27.8110928,43.2000355 L30.8314113,43.2000355 L34.8182317,22.0081923 L34.8182317,22.0081923 Z M29.2366831,0.000355123662 C33.1034181,-0.0325730129 36.6177419,2.22687562 38.1707916,5.74432193 C39.7238414,9.26176825 39.016657,13.3601084 36.3729887,16.163116 C33.7293204,18.9661235 29.6580708,19.9342231 26.0230643,18.6242173 C30.3263054,13.3674639 30.3263054,5.83310433 26.0230643,0.576350862 C27.0620538,0.240353348 28.1010434,0.000355123662 29.2366831,0.000355123662 Z" id="Shape"></path>
        </g>
    </g>
</svg>